#!OML:ASF C:\ViconDB\ViconDB\414\Spring2016\041811\Spring2016.ASF
:FULLY-SPECIFIED
:DEGREES
313
root 12.4675 17.5048 -6.07741 -178.186 -3.86097 -173.329
lowerback -2.40794 1.79231 -2.00872
upperback 1.18637 2.44616 0.414398
thorax 2.4652 1.18171 1.65846
lowerneck -8.01421 -2.97871 -10.6114
upperneck 23.3668 -10.8503 21.9282
head 10.5475 -5.04251 8.4235
rclavicle 2.18663e-014 -3.97569e-015
rhumerus -91.6563 34.7401 -125.452
rradius 84.2003
rwrist 24.2514
rhand -51.4175 -8.13609
rfingers 7.12502
rthumb -23.949 -36.6624
lclavicle 2.18663e-014 -3.97569e-015
lhumerus -76.1059 -43.6083 111.363
lradius 79.8048
lwrist -37.9474
lhand -42.6134 -4.05912
lfingers 7.12502
lthumb -15.4861 25.3406
rfemur 320.963 144.708 15.5548
rtibia 34.8602
rfoot -37.7712 -67.5906
rtoes -3.91208e-013
lfemur -37.1451 -13.728 -12.3652
ltibia 44.9399
lfoot -10.4796 -4.72709
ltoes 2.20651e-014
314
root 12.4185 17.4978 -6.26086 -178.209 -3.60729 -174.161
lowerback -2.40483 1.69785 -2.20882
upperback 1.09031 2.33176 0.184245
thorax 2.37122 1.12545 1.52727
lowerneck -8.0053 -2.84591 -10.9474
upperneck 23.9669 -10.7408 21.7548
head 10.7443 -5.04511 8.4703
rclavicle -2.6339e-014 0
rhumerus -91.3596 34.5943 -125.29
rradius 84.2435
rwrist 24.3515
rhand -50.9783 -7.65613
rfingers 7.12502
rthumb -23.5278 -36.2372
lclavicle -2.6339e-014 0
lhumerus -76.5382 -43.8408 111.415
lradius 80.0944
lwrist -37.3139
lhand -42.222 -4.19646
lfingers 7.12502
lthumb -15.109 25.2321
rfemur 319.574 145.417 14.1733
rtibia 36.3818
rfoot -35.1888 -72.1511
rtoes -2.54444e-014
lfemur -36.387 -13.5372 -13.6466
ltibia 45.2541
lfoot -11.3099 -4.86194
ltoes 1.25234e-014
315
root 12.3759 17.5025 -6.44037 -178.17 -3.35823 -174.981
lowerback -2.41703 1.56629 -2.55035
upperback 0.947238 2.16922 0.0499733
thorax 2.23059 1.0434 1.57141
lowerneck -8.04193 -2.67979 -10.9525
upperneck 24.6163 -10.4522 21.0937
head 10.883 -4.95419 8.27794
rclavicle 1.5207e-014 9.54166e-015
rhumerus -91.1946 34.5541 -125.124
rradius 84.2725
rwrist 24.7039
rhand -50.5823 -6.93314
rfingers 7.12502
rthumb -23.1479 -35.5624
lclavicle 1.5207e-014 9.54166e-015
lhumerus -77.0546 -44.0804 111.557
lradius 80.328
lwrist -36.871
lhand -41.8901 -4.07785
lfingers 7.12502
lthumb -14.7892 25.3745
rfemur 318.148 146.25 12.9587
rtibia 38.3734
rfoot -29.0257 -76.511
rtoes -1.94014e-013
lfemur -35.5756 -13.2534 -14.8836
ltibia 45.2901
lfoot -12.0969 -5.13711
ltoes 8.38871e-014
316
root 12.3278 17.5222 -6.61826 -178.176 -3.17191 -175.864
lowerback -2.41258 1.46384 -2.79576
upperback 0.862541 2.04115 -0.139361
thorax 2.14532 0.978483 1.5076
lowerneck -8.05907 -2.55114 -11.2113
upperneck 25.0681 -10.215 20.7507
head 10.9923 -4.89263 8.2477
rclavicle -2.37051e-014 2.22639e-014
rhumerus -90.9801 34.504 -124.859
rradius 84.4724
rwrist 24.9149
rhand -50.513 -6.96207
rfingers 7.12502
rthumb -23.0814 -35.5997
lclavicle -2.37051e-014 2.22639e-014
lhumerus -77.8603 -44.5171 111.883
lradius 80.7008
lwrist -36.5516
lhand -41.7165 -3.8997
lfingers 7.12502
lthumb -14.622 25.5648
rfemur 316.592 147.1 11.6945
rtibia 40.7824
rfoot -18.3642 -80.195
rtoes 1.08139e-013
lfemur -34.5144 -12.8596 -16.2448
ltibia 45.0029
lfoot -12.7331 -5.5179
ltoes -8.52786e-014
317
root 12.2839 17.5613 -6.79458 -178.115 -3.01105 -176.702
lowerback -2.41938 1.31112 -3.0477
upperback 0.738967 1.84424 -0.316146
thorax 2.02921 0.879771 1.45758
lowerneck -8.03568 -2.41804 -11.2203
upperneck 25.4266 -9.86313 20.0949
head 11.0045 -4.77156 8.04926
rclavicle -4.60187e-014 -2.70347e-014
rhumerus -90.662 34.3901 -124.609
rradius 84.7013
rwrist 24.7273
rhand -49.9949 -6.37643
rfingers 7.12502
rthumb -22.5842 -35.0754
lclavicle -4.60187e-014 -2.70347e-014
lhumerus -78.6844 -44.934 112.197
lradius 81.0208
lwrist -35.7071
lhand -41.7096 -4.04087
lfingers 7.12502
lthumb -14.6154 25.4241
rfemur 315.139 148.149 10.6383
rtibia 43.5365
rfoot -2.31868 -82.8672
rtoes 6.36111e-015
lfemur -33.3512 -12.4412 -17.495
ltibia 44.3653
lfoot -13.2068 -5.95557
ltoes 7.71285e-014
318
root 12.2379 17.6128 -6.96908 -178.198 -2.84755 -177.57
lowerback -2.24813 1.20814 -3.29347
upperback 0.672403 1.70522 -0.489312
thorax 1.8694 0.809737 1.40672
lowerneck -8.00266 -2.30454 -11.2825
upperneck 25.5969 -9.52481 19.6053
head 10.9637 -4.6477 7.91708
rclavicle 6.38596e-015 2.54444e-014
rhumerus -90.2336 34.244 -124.1
rradius 84.8758
rwrist 24.8767
rhand -49.5648 -5.05165
rfingers 7.12502
rthumb -22.1713 -33.8002
lclavicle 6.38596e-015 2.54444e-014
lhumerus -79.6246 -45.5916 112.81
lradius 81.3016
lwrist -34.5896
lhand -41.4015 -3.84506
lfingers 7.12502
lthumb -14.3185 25.6412
rfemur 313.716 149.34 9.55116
rtibia 46.3986
rfoot 20.7589 -84.1703
rtoes 2.8943e-013
lfemur -31.8815 -11.9893 -18.798
ltibia 43.4355
lfoot -13.5726 -6.39081
ltoes -5.18828e-014
319
root 12.2013 17.6656 -7.13776 -178.342 -2.54459 -178.499
lowerback -1.94608 1.12578 -3.711
upperback 0.629227 1.58911 -0.644509
thorax 1.65436 0.749413 1.46915
lowerneck -7.98839 -2.17073 -11.5112
upperneck 25.6884 -9.1374 19.253
head 10.9047 -4.50394 7.87535
rclavicle -4.02539e-015 -7.95139e-016
rhumerus -89.9258 34.1376 -123.715
rradius 84.9426
rwrist 25.6132
rhand -49.5096 -5.16336
rfingers 7.12502
rthumb -22.1183 -33.9182
lclavicle -4.02539e-015 -7.95139e-016
lhumerus -80.4376 -46.0307 113.249
lradius 81.435
lwrist -34.2752
lhand -41.5701 -3.63782
lfingers 7.12502
lthumb -14.481 25.8369
rfemur 312.519 150.844 8.50317
rtibia 49.3
rfoot 40.2024 -84.1896
rtoes -4.13472e-014
lfemur -30.2776 -11.2545 -20.1454
ltibia 42.3249
lfoot -13.8649 -6.92379
ltoes -1.25234e-014
320
root 12.1615 17.7207 -7.307 -178.278 -2.42704 -179.213
lowerback -1.8821 1.01222 -3.80538
upperback 0.539383 1.43263 -0.769621
thorax 1.53516 0.672479 1.38638
lowerneck -7.9158 -2.05786 -11.6974
upperneck 25.6751 -8.74561 18.8594
head 10.7917 -4.35542 7.80339
rclavicle -2.44754e-014 1.51076e-014
rhumerus -89.5942 33.9599 -123.335
rradius 85.0563
rwrist 26.0555
rhand -49.1591 -4.68697
rfingers 7.12502
rthumb -21.7818 -33.4813
lclavicle -2.44754e-014 1.51076e-014
lhumerus -81.3204 -46.5078 113.885
lradius 81.5841
lwrist -33.7425
lhand -41.5877 -3.32255
lfingers 7.12502
lthumb -14.4979 26.1509
rfemur 408.12 -27.8593 7.81955
rtibia -52.0163
rfoot 54.8317 -96.6945
rtoes 2.67167e-013
lfemur -28.9297 -10.6636 -21.1923
ltibia 41.147
lfoot -14.0111 -7.52215
ltoes -2.38542e-014
321
root 12.1234 17.7674 -7.47511 -178.344 -2.22967 -180.083
lowerback -1.68035 0.861839 -4.22372
upperback 0.507422 1.22601 -0.863937
thorax 1.39328 0.566333 1.51346
lowerneck -8.04136 -1.9539 -11.7685
upperneck 25.8175 -8.33233 18.2395
head 10.7613 -4.19264 7.62866
rclavicle -2.49226e-014 6.36111e-015
rhumerus -89.2373 33.8649 -122.936
rradius 85.021
rwrist 26.5502
rhand -48.8513 -4.32719
rfingers 7.12502
rthumb -21.4862 -33.1555
lclavicle -2.49226e-014 6.36111e-015
lhumerus -82.2792 -46.811 114.621
lradius 81.8153
lwrist -32.8945
lhand -41.6124 -3.24684
lfingers 7.12502
lthumb -14.5217 26.2249
rfemur 408.731 -26.7425 6.83395
rtibia -54.538
rfoot 63.9143 -97.8883
rtoes 3.37139e-013
lfemur -27.4346 -9.82336 -22.4304
ltibia 39.979
lfoot -14.1458 -8.2742
ltoes -4.6118e-014
322
root 12.0849 17.8119 -7.64241 -178.53 -1.98284 -180.714
lowerback -1.38642 0.797197 -4.27064
upperback 0.530727 1.1223 -0.973748
thorax 1.25934 0.514885 1.41977
lowerneck -8.1449 -1.85133 -11.7582
upperneck 25.87 -7.94375 17.6943
head 10.7023 -4.02933 7.46145
rclavicle -1.22998e-015 -3.57812e-015
rhumerus -88.7747 33.6687 -122.589
rradius 84.9049
rwrist 27.115
rhand -48.7594 -4.32322
rfingers 7.12502
rthumb -21.398 -33.1616
lclavicle -1.22998e-015 -3.57812e-015
lhumerus -82.9387 -46.9709 115.072
lradius 82.0237
lwrist -32.2371
lhand -41.409 -3.21366
lfingers 7.12502
lthumb -14.3258 26.2721
rfemur 409.052 -25.6823 6.07651
rtibia -56.7092
rfoot 69.2135 -98.8788
rtoes -1.33583e-013
lfemur -25.8598 -9.09267 -23.3782
ltibia 38.8504
lfoot -14.2926 -8.88418
ltoes 1.59028e-014
323
root 12.0523 17.855 -7.80403 -178.572 -1.85941 -181.134
lowerback -1.15421 0.669251 -4.18657
upperback 0.506833 0.936118 -1.01608
thorax 1.11676 0.425291 1.32199
lowerneck -8.39978 -1.72017 -11.7331
upperneck 26.0451 -7.55593 17.2017
head 10.7253 -3.86031 7.31892
rclavicle 7.85199e-015 -1.03368e-014
rhumerus -88.454 33.4994 -122.429
rradius 84.8056
rwrist 27.5827
rhand -48.8087 -4.1394
rfingers 7.12502
rthumb -21.4453 -32.9724
lclavicle 7.85199e-015 -1.03368e-014
lhumerus -83.7461 -47.1662 115.618
lradius 82.088
lwrist -32.1442
lhand -41.6434 -3.07611
lfingers 7.12502
lthumb -14.5516 26.3935
rfemur 408.833 -24.7656 5.76644
rtibia -58.5667
rfoot 72.6274 -99.5977
rtoes -2.13097e-013
lfemur -24.5654 -8.57708 -24.0395
ltibia 37.8065
lfoot -14.3851 -9.33571
ltoes 4.21423e-014
